PathFileType	4	(x/y/z)	S01_P20_T21
DataRate	CameraRate	NumFrames	NumMarkers	Units	OrigDataRate	OrigDataStartFrame	OrigNumFrames
240	240	4	51	mm	240	286	381
Frame#	Time	Sternum			R.Acromium			L.Acromium			Top.Head			R.ASIS			L.ASIS			R.PSIS			L.PSIS			R.Great.Tro			L.Great.Tro			R.Iliac.Crest			L.Iliac.Crest			V.Sacral			R.Thigh.Upper.Post			R.Thigh.Lower.Ant			R.Thigh.Lower.Post			R.Thigh.Upper.Ant			R.Knee.Lat			R.Knee.Med			R.Shank.Upper.Post			R.Shank.Lower.Ant			R.Shank.Lower.Post			R.Shank.Upper.Ant			R.Ankle.Lat			R.Ankle.Med			R.Heel.Upper			R.Heel.Med			R.Heel.Lat			R.Toe.Lat			R.Toe.Med			R.Toe.Tip			L.Thigh.Upper.Post			L.Thigh.Lower.Ant			L.Thigh.Lower.Post			L.Thigh.Upper.Ant			L.Knee.Lat			L.Knee.Med			L.Shank.Upper.Post			L.Shank.Lower.Ant			L.Shank.Lower.Post			L.Shank.Upper.Ant			L.Ankle.Lat			L.Ankle.Med			L.Heel.Upper			L.Heel.Med			L.Heel.Lat			L.Toe.Lat			L.Toe.Med			L.Toe.Tip			Cervical.Spine			Back			
		X1	Y1	Z1	X2	Y2	Z2	X3	Y3	Z3	X4	Y4	Z4	X5	Y5	Z5	X6	Y6	Z6	X7	Y7	Z7	X8	Y8	Z8	X9	Y9	Z9	X10	Y10	Z10	X11	Y11	Z11	X12	Y12	Z12	X13	Y13	Z13	X14	Y14	Z14	X15	Y15	Z15	X16	Y16	Z16	X17	Y17	Z17	X18	Y18	Z18	X19	Y19	Z19	X20	Y20	Z20	X21	Y21	Z21	X22	Y22	Z22	X23	Y23	Z23	X24	Y24	Z24	X25	Y25	Z25	X26	Y26	Z26	X27	Y27	Z27	X28	Y28	Z28	X29	Y29	Z29	X30	Y30	Z30	X31	Y31	Z31	X32	Y32	Z32	X33	Y33	Z33	X34	Y34	Z34	X35	Y35	Z35	X36	Y36	Z36	X37	Y37	Z37	X38	Y38	Z38	X39	Y39	Z39	X40	Y40	Z40	X41	Y41	Z41	X42	Y42	Z42	X43	Y43	Z43	X44	Y44	Z44	X45	Y45	Z45	X46	Y46	Z46	X47	Y47	Z47	X48	Y48	Z48	X49	Y49	Z49	X50	Y50	Z50	X51	Y51	Z51	

286	1.1875	322.8	1298.4	242.45	201.93	1554	409.93	171.65	1551.4	78.741	170.03	1870.2	225.88	275.24	1050.2	412.16	290.24	1040.4	147.48	44.47	1080.6	308.69	46.525	1076.7	204.76	198.74	997.92	492.98	189.94	984.85	64.877	183.5	1152.2	466.32	182.15	1117.5	65.786	32.561	1041.7	254.81	280.39	699.39	499.24	371.38	652.14	495.9	312.47	615.7	489.58	342.12	737.97	503.59	343.09	560.06	491.91	383.18	558.24	349.31	210.71	466.27	484.84	214.72	362.42	446.29	166.74	414.07	466.61	256.05	418.64	471.72	46.949	258.98	409.35	93.677	240.52	325.59	-9.7255	279.13	335.46	-12.026	248.08	304.21	-31.129	249.91	366.3	82.312	115.48	453.27	138.04	100.49	342.47	185.44	76.699	409.84	182.93	697.64	85.902	274.54	636.84	85.523	202.19	610.64	103.18	246.84	726.59	67.825	259.62	529.98	95.299	282.63	535.31	233.49	197.94	397.45	71.889	248.88	301.73	97.478	191.05	319.79	74.162	256.7	378.35	90.831	153.14	108.73	104.7	174.47	117.08	201.8	79.948	76.034	145.46	87.27	50.487	179.64	90.318	49.561	117.69	298.89	40.097	88.589	320.24	46.963	211.87	383.93	59.526	162.92	96.717	1604	247.67	25.854	1296.1	278.29
287	1.1917	328.26	1299.6	242.55	207.21	1555	409.91	177.58	1552.5	78.69	175.63	1871	225.92	280.67	1051.5	411.93	295.54	1041.3	147.41	49.913	1081.7	308.99	51.899	1077.8	205.06	204.47	999.4	493.1	194.74	985.52	65.03	189.02	1153.6	466.14	187.7	1118.6	65.904	37.955	1042.8	255.14	288.03	701.16	499.48	379.36	654.57	495.52	320.7	617.72	489.55	349.5	740.19	503.46	351.72	562.15	491.64	391.59	560.91	349.15	220.76	465.76	484.58	226.83	362.05	445.98	177.88	412.67	466.26	267.03	419.08	471.52	61.139	255.18	409.05	108.34	237.8	325.35	3.9325	273.97	335.15	2.4423	242.82	303.95	-16.758	244.23	366.02	99.905	112.66	453.13	156.08	98.966	342.35	203.95	76.374	409.75	185.24	698.48	85.972	276.35	636.92	85.372	203.82	611.33	103.15	249.33	726.94	67.783	260.47	530.08	95.058	283.93	535.16	233.22	198.31	397.59	71.811	249.11	301.78	97.287	191.29	319.94	74.104	257.07	378.39	90.6	153.19	108.88	104.72	174.53	117.2	201.79	80.029	76.194	145.54	87.317	50.619	179.73	90.349	49.736	117.75	298.91	40.061	88.558	320.27	46.939	211.82	383.96	59.466	162.87	102.42	1604.9	247.46	31.44	1297.2	277.86
288	1.1958	333.73	1300.6	242.65	212.51	1555.8	409.9	183.51	1553.4	78.654	181.22	1871.8	226	286.13	1052.7	411.68	300.82	1042	147.31	55.351	1082.8	309.31	57.259	1078.8	205.38	210.21	1000.8	493.22	199.51	986.14	65.186	194.56	1154.9	465.98	193.19	1119.5	66.02	43.342	1043.8	255.5	295.6	702.86	499.71	387.25	656.9	495.11	328.83	619.66	489.5	356.81	742.31	503.31	360.21	564.14	491.35	399.83	563.49	348.97	230.77	465.11	484.32	238.96	361.57	445.7	189.03	411.13	465.93	277.97	419.43	471.31	75.462	251.24	408.8	123.14	234.93	325.18	17.763	268.6	334.88	17.106	237.35	303.74	-2.1949	238.36	365.78	117.66	109.81	453.12	174.29	97.4	342.37	222.59	76.068	409.81	187.59	699.31	86.054	278.19	636.99	85.233	205.47	612.01	103.13	251.82	727.26	67.741	261.35	530.17	94.833	285.23	534.99	232.96	198.7	397.73	71.745	249.35	301.83	97.105	191.54	320.1	74.05	257.47	378.41	90.383	153.23	109.03	104.75	174.6	117.31	201.79	80.113	76.348	145.63	87.373	50.743	179.82	90.378	49.908	117.82	298.93	40.024	88.528	320.3	46.914	211.78	383.99	59.403	162.83	108.13	1605.7	247.27	37.028	1298.2	277.45
289	1.2	339.2	1301.6	242.73	217.83	1556.6	409.91	189.45	1554.3	78.631	186.8	1872.5	226.11	291.59	1053.8	411.43	306.07	1042.7	147.19	60.786	1083.8	309.66	62.605	1079.8	205.72	215.96	1002.1	493.33	204.27	986.7	65.346	200.13	1156	465.85	198.61	1120.3	66.132	48.721	1044.8	255.87	303.09	704.47	499.92	395.04	659.13	494.67	336.85	621.51	489.43	364.05	744.33	503.14	368.58	566.04	491.03	407.9	565.95	348.78	240.74	464.34	484.05	251.09	361.01	445.44	200.17	409.46	465.62	288.87	419.69	471.11	89.921	247.17	408.6	138.06	231.91	325.06	31.773	263.02	334.64	31.971	231.69	303.59	12.565	232.32	365.59	135.58	106.96	453.23	192.64	95.808	342.52	241.35	75.793	410.02	189.96	700.11	86.149	280.05	637.04	85.108	207.16	612.65	103.11	254.33	727.55	67.703	262.25	530.24	94.625	286.54	534.8	232.73	199.13	397.86	71.694	249.62	301.86	96.935	191.82	320.25	74.002	257.89	378.42	90.18	153.28	109.17	104.79	174.66	117.41	201.79	80.199	76.497	145.72	87.436	50.859	179.92	90.407	50.076	117.89	298.96	39.988	88.498	320.33	46.888	211.73	384.02	59.337	162.78	113.85	1606.4	247.11	42.619	1299.2	277.07
